# xmcd
#
# Track frame offsets: 
#        150
#        21710
#        39342
#        49227
#        72217
#        121112
#        128437
#        141892
#        178495
#        192982
#
# Disc length: 2886 seconds
#
# Revision: 6
# Processed by: cddbd v1.5.2PL0 Copyright (c) Steve Scherf et al.
# Submitted via: ExactAudioCopy v1.0b1
#
DISCID=920b440a
DTITLE=Bernstein, Leonard - Dybbuk (Complete Ballet) (Bernstein, New Y
DTITLE=ork City Orch.)
DYEAR=1974
DGENRE=Ballett
TTITLE0=Dybbuk (1974) - Part I. The Community
TTITLE1=Dybbuk (1974) - Part I. The Fathers
TTITLE2=Dybbuk (1974) - Part I. Witnesses of Birth
TTITLE3=Dybbuk (1974) - Part I. The Children
TTITLE4=Dybbuk (1974) - Part II. Kabbalah: Six Variations
TTITLE5=Dybbuk (1974) - Part III. Witnesses of Death
TTITLE6=Dybbuk (1974) - Part III. Leah
TTITLE7=Dybbuk (1974) - Part III. Possession
TTITLE8=Dybbuk (1974) - Part III. Exorcism
TTITLE9=Dybbuk (1974) - Part III. The Community
EXTD=
EXTT0=
EXTT1=
EXTT2=
EXTT3=
EXTT4=
EXTT5=
EXTT6=
EXTT7=
EXTT8=
EXTT9=
PLAYORDER=
